<mxfile host="app.diagrams.net" agent="Mozilla/5.0 (Windows NT 10.0; Win64; x64) AppleWebKit/537.36 (KHTML, like Gecko) Chrome/129.0.0.0 Safari/537.36" version="24.7.16">
  <diagram name="Page-1" id="RB95wvUpvwKdltrVVi83">
    <mxGraphModel dx="1615" dy="803" grid="1" gridSize="10" guides="1" tooltips="1" connect="1" arrows="1" fold="1" page="1" pageScale="1" pageWidth="850" pageHeight="1100" math="0" shadow="0">
      <root>
        <mxCell id="0" />
        <mxCell id="1" parent="0" />
        <mxCell id="ZUsT1aP7JuB-7AnAd1JA-1" value="Learning Management System - Data Flow Diagram" style="text;align=center;fontStyle=1;verticalAlign=middle;spacingLeft=3;spacingRight=3;strokeColor=none;rotatable=0;points=[[0,0.5],[1,0.5]];portConstraint=eastwest;html=1;fontSize=19;" vertex="1" parent="1">
          <mxGeometry x="186" y="120" width="459" height="30" as="geometry" />
        </mxCell>
        <mxCell id="ZUsT1aP7JuB-7AnAd1JA-2" value="" style="shape=ellipse;container=1;horizontal=1;horizontalStack=0;resizeParent=1;resizeParentMax=0;resizeLast=0;html=1;dashed=0;collapsible=0;" vertex="1" parent="1">
          <mxGeometry x="368" y="270" width="115" height="100" as="geometry" />
        </mxCell>
        <mxCell id="ZUsT1aP7JuB-7AnAd1JA-3" value="0.0" style="html=1;strokeColor=none;fillColor=none;align=center;verticalAlign=middle;rotatable=0;whiteSpace=wrap;" vertex="1" parent="ZUsT1aP7JuB-7AnAd1JA-2">
          <mxGeometry x="25.55555555555556" width="63.88888888888889" height="25" as="geometry" />
        </mxCell>
        <mxCell id="ZUsT1aP7JuB-7AnAd1JA-4" value="" style="line;strokeWidth=1;fillColor=none;rotatable=0;labelPosition=right;points=[];portConstraint=eastwest;dashed=0;resizeWidth=1;" vertex="1" parent="ZUsT1aP7JuB-7AnAd1JA-2">
          <mxGeometry x="5.75" y="25" width="103.50000000000001" height="8.333333333333332" as="geometry" />
        </mxCell>
        <mxCell id="ZUsT1aP7JuB-7AnAd1JA-5" value="Learning&amp;nbsp;&lt;div&gt;Management&lt;div&gt;System&lt;/div&gt;&lt;/div&gt;" style="text;html=1;align=center;verticalAlign=middle;rotatable=0;fillColor=none;strokeColor=none;whiteSpace=wrap;" vertex="1" parent="ZUsT1aP7JuB-7AnAd1JA-2">
          <mxGeometry x="12" y="40" width="90" height="41.67" as="geometry" />
        </mxCell>
        <mxCell id="ZUsT1aP7JuB-7AnAd1JA-10" value="" style="edgeStyle=orthogonalEdgeStyle;rounded=0;orthogonalLoop=1;jettySize=auto;html=1;" edge="1" parent="1" source="ZUsT1aP7JuB-7AnAd1JA-8">
          <mxGeometry relative="1" as="geometry">
            <mxPoint x="370" y="310" as="targetPoint" />
            <Array as="points">
              <mxPoint x="330" y="310" />
              <mxPoint x="330" y="310" />
            </Array>
          </mxGeometry>
        </mxCell>
        <mxCell id="ZUsT1aP7JuB-7AnAd1JA-12" value="" style="edgeStyle=orthogonalEdgeStyle;rounded=0;orthogonalLoop=1;jettySize=auto;html=1;entryX=0.5;entryY=1;entryDx=0;entryDy=0;exitX=0.168;exitY=0.877;exitDx=0;exitDy=0;exitPerimeter=0;" edge="1" parent="1" source="ZUsT1aP7JuB-7AnAd1JA-2" target="ZUsT1aP7JuB-7AnAd1JA-8">
          <mxGeometry relative="1" as="geometry">
            <mxPoint x="200" y="410" as="sourcePoint" />
            <mxPoint x="195" y="400" as="targetPoint" />
            <Array as="points">
              <mxPoint x="387" y="360" />
              <mxPoint x="195" y="360" />
            </Array>
          </mxGeometry>
        </mxCell>
        <mxCell id="ZUsT1aP7JuB-7AnAd1JA-8" value="Student" style="whiteSpace=wrap;html=1;" vertex="1" parent="1">
          <mxGeometry x="150" y="290" width="90" height="40" as="geometry" />
        </mxCell>
        <mxCell id="ZUsT1aP7JuB-7AnAd1JA-17" value="" style="edgeStyle=orthogonalEdgeStyle;rounded=0;orthogonalLoop=1;jettySize=auto;html=1;entryX=0.931;entryY=0.258;entryDx=0;entryDy=0;entryPerimeter=0;startArrow=classic;startFill=1;endArrow=none;endFill=0;" edge="1" parent="1" source="ZUsT1aP7JuB-7AnAd1JA-14" target="ZUsT1aP7JuB-7AnAd1JA-2">
          <mxGeometry relative="1" as="geometry">
            <mxPoint x="520" y="295" as="targetPoint" />
          </mxGeometry>
        </mxCell>
        <mxCell id="ZUsT1aP7JuB-7AnAd1JA-14" value="Display Courses" style="whiteSpace=wrap;html=1;" vertex="1" parent="1">
          <mxGeometry x="610" y="275" width="100" height="40" as="geometry" />
        </mxCell>
        <mxCell id="ZUsT1aP7JuB-7AnAd1JA-19" value="" style="edgeStyle=orthogonalEdgeStyle;rounded=0;orthogonalLoop=1;jettySize=auto;html=1;entryX=0.936;entryY=0.755;entryDx=0;entryDy=0;entryPerimeter=0;endArrow=none;endFill=0;startArrow=classic;startFill=1;" edge="1" parent="1" source="ZUsT1aP7JuB-7AnAd1JA-15" target="ZUsT1aP7JuB-7AnAd1JA-2">
          <mxGeometry relative="1" as="geometry">
            <mxPoint x="530" y="345" as="targetPoint" />
          </mxGeometry>
        </mxCell>
        <mxCell id="ZUsT1aP7JuB-7AnAd1JA-15" value="Display Credits" style="whiteSpace=wrap;html=1;" vertex="1" parent="1">
          <mxGeometry x="615" y="325" width="90" height="40" as="geometry" />
        </mxCell>
        <mxCell id="ZUsT1aP7JuB-7AnAd1JA-32" value="" style="shape=ellipse;container=1;horizontal=1;horizontalStack=0;resizeParent=1;resizeParentMax=0;resizeLast=0;html=1;dashed=0;collapsible=0;" vertex="1" parent="1">
          <mxGeometry x="368" y="540" width="115" height="110" as="geometry" />
        </mxCell>
        <mxCell id="ZUsT1aP7JuB-7AnAd1JA-33" value="1.0" style="html=1;strokeColor=none;fillColor=none;align=center;verticalAlign=middle;rotatable=0;whiteSpace=wrap;" vertex="1" parent="ZUsT1aP7JuB-7AnAd1JA-32">
          <mxGeometry x="25.55555555555556" width="63.88888888888889" height="25" as="geometry" />
        </mxCell>
        <mxCell id="ZUsT1aP7JuB-7AnAd1JA-34" value="" style="line;strokeWidth=1;fillColor=none;rotatable=0;labelPosition=right;points=[];portConstraint=eastwest;dashed=0;resizeWidth=1;" vertex="1" parent="ZUsT1aP7JuB-7AnAd1JA-32">
          <mxGeometry x="5.75" y="25" width="103.50000000000001" height="8.333333333333332" as="geometry" />
        </mxCell>
        <mxCell id="ZUsT1aP7JuB-7AnAd1JA-35" value="Display&lt;div&gt;Courses&lt;/div&gt;" style="text;html=1;align=center;verticalAlign=middle;rotatable=0;fillColor=none;strokeColor=none;whiteSpace=wrap;" vertex="1" parent="ZUsT1aP7JuB-7AnAd1JA-32">
          <mxGeometry x="12" y="40" width="90" height="41.67" as="geometry" />
        </mxCell>
        <mxCell id="ZUsT1aP7JuB-7AnAd1JA-36" value="" style="edgeStyle=orthogonalEdgeStyle;rounded=0;orthogonalLoop=1;jettySize=auto;html=1;exitDx=0;exitDy=0;" edge="1" parent="1" source="ZUsT1aP7JuB-7AnAd1JA-71">
          <mxGeometry relative="1" as="geometry">
            <mxPoint x="370" y="590" as="targetPoint" />
            <Array as="points">
              <mxPoint x="230" y="590" />
              <mxPoint x="370" y="590" />
            </Array>
          </mxGeometry>
        </mxCell>
        <mxCell id="ZUsT1aP7JuB-7AnAd1JA-37" value="" style="edgeStyle=orthogonalEdgeStyle;rounded=0;orthogonalLoop=1;jettySize=auto;html=1;entryX=0;entryY=0.5;entryDx=0;entryDy=0;" edge="1" parent="1" target="ZUsT1aP7JuB-7AnAd1JA-46">
          <mxGeometry relative="1" as="geometry">
            <mxPoint x="290" y="590" as="sourcePoint" />
            <mxPoint x="190" y="670" as="targetPoint" />
            <Array as="points">
              <mxPoint x="290" y="850" />
            </Array>
          </mxGeometry>
        </mxCell>
        <mxCell id="ZUsT1aP7JuB-7AnAd1JA-38" value="Student" style="whiteSpace=wrap;html=1;" vertex="1" parent="1">
          <mxGeometry x="140" y="570" width="90" height="40" as="geometry" />
        </mxCell>
        <mxCell id="ZUsT1aP7JuB-7AnAd1JA-46" value="" style="shape=ellipse;container=1;horizontal=1;horizontalStack=0;resizeParent=1;resizeParentMax=0;resizeLast=0;html=1;dashed=0;collapsible=0;" vertex="1" parent="1">
          <mxGeometry x="368" y="800" width="117" height="100" as="geometry" />
        </mxCell>
        <mxCell id="ZUsT1aP7JuB-7AnAd1JA-47" value="2.0" style="html=1;strokeColor=none;fillColor=none;align=center;verticalAlign=middle;rotatable=0;whiteSpace=wrap;" vertex="1" parent="ZUsT1aP7JuB-7AnAd1JA-46">
          <mxGeometry x="25.55555555555556" width="63.88888888888889" height="25" as="geometry" />
        </mxCell>
        <mxCell id="ZUsT1aP7JuB-7AnAd1JA-48" value="" style="line;strokeWidth=1;fillColor=none;rotatable=0;labelPosition=right;points=[];portConstraint=eastwest;dashed=0;resizeWidth=1;" vertex="1" parent="ZUsT1aP7JuB-7AnAd1JA-46">
          <mxGeometry x="5.75" y="25" width="103.50000000000001" height="8.333333333333332" as="geometry" />
        </mxCell>
        <mxCell id="ZUsT1aP7JuB-7AnAd1JA-49" value="Display&lt;div&gt;Credits&lt;/div&gt;" style="text;html=1;align=center;verticalAlign=middle;rotatable=0;fillColor=none;strokeColor=none;whiteSpace=wrap;" vertex="1" parent="ZUsT1aP7JuB-7AnAd1JA-46">
          <mxGeometry x="12" y="40" width="90" height="41.67" as="geometry" />
        </mxCell>
        <mxCell id="ZUsT1aP7JuB-7AnAd1JA-55" value="" style="edgeStyle=orthogonalEdgeStyle;rounded=0;orthogonalLoop=1;jettySize=auto;html=1;entryX=0.971;entryY=0.373;entryDx=0;entryDy=0;entryPerimeter=0;exitX=0;exitY=0.5;exitDx=0;exitDy=0;" edge="1" parent="1" source="ZUsT1aP7JuB-7AnAd1JA-51" target="ZUsT1aP7JuB-7AnAd1JA-34">
          <mxGeometry relative="1" as="geometry">
            <mxPoint x="485" y="540" as="targetPoint" />
            <Array as="points">
              <mxPoint x="540" y="530" />
              <mxPoint x="540" y="568" />
            </Array>
          </mxGeometry>
        </mxCell>
        <mxCell id="ZUsT1aP7JuB-7AnAd1JA-51" value="UG / PG" style="shape=partialRectangle;whiteSpace=wrap;html=1;left=0;right=0;fillColor=none;" vertex="1" parent="1">
          <mxGeometry x="610" y="510" width="90" height="40" as="geometry" />
        </mxCell>
        <mxCell id="ZUsT1aP7JuB-7AnAd1JA-57" value="" style="edgeStyle=orthogonalEdgeStyle;rounded=0;orthogonalLoop=1;jettySize=auto;html=1;entryX=1;entryY=0.5;entryDx=0;entryDy=0;" edge="1" parent="1" source="ZUsT1aP7JuB-7AnAd1JA-52" target="ZUsT1aP7JuB-7AnAd1JA-32">
          <mxGeometry relative="1" as="geometry">
            <mxPoint x="485" y="590" as="targetPoint" />
          </mxGeometry>
        </mxCell>
        <mxCell id="ZUsT1aP7JuB-7AnAd1JA-52" value="College List" style="shape=partialRectangle;whiteSpace=wrap;html=1;left=0;right=0;fillColor=none;" vertex="1" parent="1">
          <mxGeometry x="610" y="575" width="90" height="40" as="geometry" />
        </mxCell>
        <mxCell id="ZUsT1aP7JuB-7AnAd1JA-59" value="" style="edgeStyle=orthogonalEdgeStyle;rounded=0;orthogonalLoop=1;jettySize=auto;html=1;entryX=0.946;entryY=0.727;entryDx=0;entryDy=0;entryPerimeter=0;" edge="1" parent="1" source="ZUsT1aP7JuB-7AnAd1JA-53" target="ZUsT1aP7JuB-7AnAd1JA-32">
          <mxGeometry relative="1" as="geometry">
            <mxPoint x="465" y="640" as="targetPoint" />
            <Array as="points">
              <mxPoint x="540" y="650" />
              <mxPoint x="540" y="620" />
            </Array>
          </mxGeometry>
        </mxCell>
        <mxCell id="ZUsT1aP7JuB-7AnAd1JA-53" value="Courses Selected" style="shape=partialRectangle;whiteSpace=wrap;html=1;left=0;right=0;fillColor=none;fontStyle=0" vertex="1" parent="1">
          <mxGeometry x="600" y="640" width="110" height="40" as="geometry" />
        </mxCell>
        <mxCell id="ZUsT1aP7JuB-7AnAd1JA-63" value="" style="edgeStyle=orthogonalEdgeStyle;rounded=0;orthogonalLoop=1;jettySize=auto;html=1;entryX=0.5;entryY=1;entryDx=0;entryDy=0;startArrow=classic;startFill=1;endArrow=none;endFill=0;" edge="1" parent="1" source="ZUsT1aP7JuB-7AnAd1JA-61" target="ZUsT1aP7JuB-7AnAd1JA-32">
          <mxGeometry relative="1" as="geometry">
            <mxPoint x="475" y="779.9999999999998" as="targetPoint" />
          </mxGeometry>
        </mxCell>
        <mxCell id="ZUsT1aP7JuB-7AnAd1JA-61" value="Display&lt;div&gt;Course&lt;/div&gt;" style="whiteSpace=wrap;html=1;" vertex="1" parent="1">
          <mxGeometry x="600" y="760" width="90" height="40" as="geometry" />
        </mxCell>
        <mxCell id="ZUsT1aP7JuB-7AnAd1JA-64" value="Level 0" style="text;html=1;align=center;verticalAlign=middle;resizable=0;points=[];autosize=1;strokeColor=none;fillColor=none;fontStyle=5;fontSize=14;" vertex="1" parent="1">
          <mxGeometry x="390" y="210" width="70" height="30" as="geometry" />
        </mxCell>
        <mxCell id="ZUsT1aP7JuB-7AnAd1JA-65" value="Level 1" style="text;html=1;align=center;verticalAlign=middle;resizable=0;points=[];autosize=1;strokeColor=none;fillColor=none;fontStyle=5;fontSize=14;" vertex="1" parent="1">
          <mxGeometry x="390" y="470" width="70" height="30" as="geometry" />
        </mxCell>
        <mxCell id="ZUsT1aP7JuB-7AnAd1JA-66" value="login" style="text;html=1;align=center;verticalAlign=middle;resizable=0;points=[];autosize=1;strokeColor=none;fillColor=none;" vertex="1" parent="1">
          <mxGeometry x="270" y="280" width="50" height="30" as="geometry" />
        </mxCell>
        <mxCell id="ZUsT1aP7JuB-7AnAd1JA-67" value="certificate" style="text;html=1;align=center;verticalAlign=middle;resizable=0;points=[];autosize=1;strokeColor=none;fillColor=none;" vertex="1" parent="1">
          <mxGeometry x="260" y="335" width="70" height="30" as="geometry" />
        </mxCell>
        <mxCell id="ZUsT1aP7JuB-7AnAd1JA-68" value="Demand Course&lt;div&gt;Information&lt;/div&gt;" style="text;html=1;align=center;verticalAlign=middle;resizable=0;points=[];autosize=1;strokeColor=none;fillColor=none;" vertex="1" parent="1">
          <mxGeometry x="483" y="275" width="110" height="40" as="geometry" />
        </mxCell>
        <mxCell id="ZUsT1aP7JuB-7AnAd1JA-69" value="Demand&lt;div&gt;Credits&lt;/div&gt;" style="text;html=1;align=center;verticalAlign=middle;resizable=0;points=[];autosize=1;strokeColor=none;fillColor=none;" vertex="1" parent="1">
          <mxGeometry x="503" y="325" width="70" height="40" as="geometry" />
        </mxCell>
        <mxCell id="ZUsT1aP7JuB-7AnAd1JA-70" value="login" style="text;html=1;align=center;verticalAlign=middle;resizable=0;points=[];autosize=1;strokeColor=none;fillColor=none;" vertex="1" parent="1">
          <mxGeometry x="300" y="560" width="50" height="30" as="geometry" />
        </mxCell>
        <mxCell id="ZUsT1aP7JuB-7AnAd1JA-71" value="" style="shape=waypoint;sketch=0;size=6;pointerEvents=1;points=[];fillColor=default;resizable=0;rotatable=0;perimeter=centerPerimeter;snapToPoint=1;" vertex="1" parent="1">
          <mxGeometry x="280" y="580" width="20" height="20" as="geometry" />
        </mxCell>
        <mxCell id="ZUsT1aP7JuB-7AnAd1JA-74" value="Demand Credits" style="text;html=1;align=center;verticalAlign=middle;resizable=0;points=[];autosize=1;strokeColor=none;fillColor=none;" vertex="1" parent="1">
          <mxGeometry x="190" y="710" width="110" height="30" as="geometry" />
        </mxCell>
        <mxCell id="ZUsT1aP7JuB-7AnAd1JA-75" value="Demand Course Information" style="text;html=1;align=center;verticalAlign=middle;resizable=0;points=[];autosize=1;strokeColor=none;fillColor=none;" vertex="1" parent="1">
          <mxGeometry x="425" y="750" width="170" height="30" as="geometry" />
        </mxCell>
        <mxCell id="ZUsT1aP7JuB-7AnAd1JA-76" value="degree" style="text;html=1;align=center;verticalAlign=middle;resizable=0;points=[];autosize=1;strokeColor=none;fillColor=none;" vertex="1" parent="1">
          <mxGeometry x="540" y="500" width="60" height="30" as="geometry" />
        </mxCell>
        <mxCell id="ZUsT1aP7JuB-7AnAd1JA-77" value="college" style="text;html=1;align=center;verticalAlign=middle;resizable=0;points=[];autosize=1;strokeColor=none;fillColor=none;" vertex="1" parent="1">
          <mxGeometry x="540" y="570" width="60" height="30" as="geometry" />
        </mxCell>
        <mxCell id="ZUsT1aP7JuB-7AnAd1JA-78" value="stream" style="text;html=1;align=center;verticalAlign=middle;resizable=0;points=[];autosize=1;strokeColor=none;fillColor=none;" vertex="1" parent="1">
          <mxGeometry x="540" y="645" width="60" height="30" as="geometry" />
        </mxCell>
      </root>
    </mxGraphModel>
  </diagram>
</mxfile>
